<svg id="Layer_1" data-name="Layer 1" xmlns="http://www.w3.org/2000/svg" viewBox="0 0 480 86.49"><defs><style>.cls-1{fill:#262626;}.cls-2{fill:#79d1f0;}</style></defs><rect class="cls-1" width="480" height="86.49" rx="12" ry="12"/><path class="cls-2" d="M20.17,53.11h-5.3V32.54H8.08V28.13H27v4.41H20.17Z"/><path class="cls-2" d="M51.27,53.11H46V42.33h-9.9V53.11h-5.3v-25h5.3v9.79H46V28.13h5.28Z"/><path class="cls-2" d="M72,53.11H57.58v-25H72v4.34H62.87V38h8.46v4.34H62.87v6.44H72Z"/><path class="cls-2" d="M87.76,53.11l-6-19.6h-.15q.33,6,.33,8V53.11H77.18v-25h7.21L90.3,47.23h.1l6.27-19.11h7.21v25H98.95V41.29q0-.84,0-1.93t.23-5.81h-.15L92.61,53.11Z"/><path class="cls-2" d="M124.57,53.11H110.18v-25h14.39v4.34h-9.09V38h8.46v4.34h-8.46v6.44h9.09Z"/><path class="cls-2" d="M159.21,28.13V44.29A9.32,9.32,0,0,1,158,49.15a8.06,8.06,0,0,1-3.58,3.2,12.79,12.79,0,0,1-5.54,1.11q-4.82,0-7.49-2.47a8.76,8.76,0,0,1-2.67-6.76V28.13H144v15.3a6.4,6.4,0,0,0,1.16,4.24A4.83,4.83,0,0,0,149,49a4.73,4.73,0,0,0,3.77-1.36,6.44,6.44,0,0,0,1.17-4.26V28.13Z"/><path class="cls-2" d="M182.59,35.92a7.63,7.63,0,0,1-2.52,6.17q-2.52,2.14-7.17,2.14h-2.27v8.89h-5.3v-25h8q4.55,0,6.91,2A7.13,7.13,0,0,1,182.59,35.92Zm-12,4h1.74a5.8,5.8,0,0,0,3.66-1,3.38,3.38,0,0,0,1.21-2.81,3.47,3.47,0,0,0-1-2.75,4.77,4.77,0,0,0-3.19-.89h-2.41Z"/><path class="cls-2" d="M208,40.38q0,6.17-3.51,9.45t-10.14,3.28H187.3v-25h7.84q6.12,0,9.5,3.23T208,40.38Zm-5.5.14q0-8-7.11-8H192.6V48.74h2.27Q202.53,48.74,202.53,40.52Z"/><path class="cls-2" d="M228.51,53.11l-1.81-5.95h-9.11l-1.81,5.95h-5.71L218.89,28h6.48l8.85,25.09Zm-3.08-10.39q-2.51-8.08-2.83-9.14t-.45-1.67q-.56,2.19-3.23,10.82Z"/><path class="cls-2" d="M247,53.11h-5.3V32.54h-6.79V28.13h18.87v4.41H247Z"/><path class="cls-2" d="M272,53.11H257.63v-25H272v4.34h-9.09V38h8.46v4.34h-8.46v6.44H272Z"/><path class="cls-2" d="M301.62,53.11l-1.81-5.95H290.7l-1.81,5.95h-5.71L292,28h6.48l8.85,25.09Zm-3.08-10.39q-2.51-8.08-2.83-9.14t-.45-1.67q-.56,2.19-3.23,10.82Z"/><path class="cls-2" d="M324.72,28.13h5.35l-8.49,25H315.8l-8.48-25h5.35L317.38,43q.39,1.32.81,3.07t.52,2.44A43.67,43.67,0,0,1,320,43Z"/><path class="cls-2" d="M348.51,53.11l-1.81-5.95h-9.11l-1.81,5.95h-5.71L338.89,28h6.48l8.85,25.09Zm-3.08-10.39q-2.51-8.08-2.83-9.14t-.45-1.67q-.56,2.19-3.23,10.82Z"/><path class="cls-2" d="M357.36,53.11v-25h5.3v25Z"/><path class="cls-2" d="M369,53.11v-25h5.3V48.74h10.13v4.38Z"/><path class="cls-2" d="M404,53.11l-1.81-5.95H393.1l-1.81,5.95h-5.71L394.4,28h6.48l8.85,25.09Zm-3.08-10.39q-2.51-8.08-2.83-9.14t-.45-1.67q-.56,2.19-3.23,10.82Z"/><path class="cls-2" d="M412.87,28.13h7.78q5.32,0,7.72,1.51a5.26,5.26,0,0,1,2.4,4.81,6.06,6.06,0,0,1-1.05,3.67,4.2,4.2,0,0,1-2.79,1.73V40a5.51,5.51,0,0,1,3.43,2,6.45,6.45,0,0,1,1.05,3.86,6.36,6.36,0,0,1-2.47,5.33,10.68,10.68,0,0,1-6.71,1.91h-9.35Zm5.3,9.9h3.08a5.63,5.63,0,0,0,3.12-.67,2.49,2.49,0,0,0,1-2.2,2.21,2.21,0,0,0-1.05-2.06,6.75,6.75,0,0,0-3.32-.62h-2.79Zm0,4.2v6.51h3.45a5.12,5.12,0,0,0,3.23-.84,3.09,3.09,0,0,0,1-2.56q0-3.11-4.44-3.11Z"/><path class="cls-2" d="M436.39,53.11v-25h5.3V48.74h10.13v4.38Z"/><path class="cls-2" d="M470.55,53.11H456.16v-25h14.39v4.34h-9.09V38h8.46v4.34h-8.46v6.44h9.09Z"/></svg>